# xmcd CD database file
#
# Track frame offsets:
#	150
#	22427
#	44375
#	62580
#	87232
#	106325
#	125297
#	141460
#	164845
#	188152
#	205022
#
# Disc length: 2997 seconds
#
# Revision: 0
# Processed by: cddbd v1.4b42PL1 Copyright (c) Steve Scherf et al.
# Submitted via: CDex 1.40Beta8
#
DISCID=a20bb30b
DTITLE=Bob Malone - I Like It Or Not
DYEAR=2001
DGENRE=Blues
TTITLE0=I Like It Or Not
TTITLE1=Meet Me In Manhattan
TTITLE2=Texas
TTITLE3=The Man You Love
TTITLE4=Sometimes I wish I Were Me
TTITLE5=Valentines Day
TTITLE6=Moderation
TTITLE7=Enough
TTITLE8=Tomorrow Can't Be Trusted
TTITLE9=Einstein
TTITLE10=Just 'Cause I Sing The Blues (Don't Mean I Want To)
EXTD=YEAR: 2001 ID3G: 0
EXTT0=
EXTT1=
EXTT2=
EXTT3=
EXTT4=
EXTT5=
EXTT6=
EXTT7=
EXTT8=
EXTT9=
EXTT10=
PLAYORDER=
